<?xml version="1.0" encoding="utf-8"?>
<!-- Generator: Adobe Illustrator 14.0.0, SVG Export Plug-In . SVG Version: 6.00 Build 43363)  -->
<!DOCTYPE svg PUBLIC "-//W3C//DTD SVG 1.1//EN" "http://www.w3.org/Graphics/SVG/1.1/DTD/svg11.dtd">
<svg version="1.1" id="Layer_1" xmlns="http://www.w3.org/2000/svg" xmlns:xlink="http://www.w3.org/1999/xlink" x="0px" y="0px"
	 width="9.141px" height="8.875px" viewBox="0 0 9.141 8.875" enable-background="new 0 0 9.141 8.875" xml:space="preserve">
<g>
	<path d="M3.288,1.176c-0.272-0.504-0.325-0.59-0.336-0.584C2.941,0.598,2.986,0.688,3.259,1.192l0.807,1.492
		C4.156,2.852,4.162,2.861,4.164,2.86c0.004-0.002-0.006-0.022-0.086-0.17L3.907,2.374l0.005-0.003l0.49,0.897
		c-0.012-0.006,0.023,0.077,0.09,0.207C4.444,3.398,4.415,3.363,4.403,3.369C4.393,3.375,4.397,3.411,4.439,3.503
		C4.368,3.375,4.318,3.301,4.316,3.314L3.832,2.402l0.004-0.002l0.176,0.326c0.091,0.167,0.103,0.187,0.105,0.186
		c0.004-0.002-0.004-0.023-0.089-0.182L2.735,0.339C2.728,0.317,2.689,0.236,2.647,0.156c0.023,0.039,0.038,0.057,0.05,0.075
		c0.01,0.008,0.018,0.016,0.021,0.015c0.007-0.004-0.005-0.035-0.017-0.067C2.69,0.146,2.694,0.131,2.704,0.126
		C2.73,0.112,2.884,0.31,3.263,1.011l1.015,1.877C4.631,3.54,4.677,3.617,4.736,3.713C4.757,3.765,4.782,3.815,4.83,3.904
		c0.021,0.04,0.072,0.127,0.109,0.184C4.98,4.181,5.053,4.321,5.416,4.992L6.393,6.8c0.332,0.612,0.443,0.884,0.41,0.902
		C6.791,7.708,6.766,7.684,6.748,7.667C6.73,7.652,6.71,7.625,6.704,7.628C6.699,7.63,6.707,7.652,6.746,7.733
		C6.668,7.596,6.629,7.541,6.628,7.554C6.594,7.483,6.544,7.383,6.282,6.899L5.865,6.128C5.7,5.822,5.637,5.716,5.6,5.659
		C5.546,5.522,5.49,5.412,5.176,4.829l0.005-0.003c0.31,0.573,0.377,0.69,0.463,0.81c0.028,0.062,0.086,0.171,0.251,0.477
		l0.188,0.346c0.4,0.741,0.438,0.784,0.45,0.777C6.547,7.228,6.53,7.173,6.13,6.432L5.36,5.009C5.014,4.367,4.923,4.212,4.869,4.126
		C4.843,4.064,4.808,3.993,4.775,3.934S4.698,3.797,4.667,3.75C4.604,3.618,4.415,3.261,4.132,2.737L3.288,1.176z"/>
	<path d="M6.171,6.767c0.294,0.543,0.51,1.001,0.484,1.015C6.637,7.753,6.624,7.735,6.609,7.717
		C6.596,7.699,6.585,7.692,6.581,7.694C6.572,7.699,6.586,7.743,6.615,7.803C6.602,7.811,6.477,7.661,6.097,6.96L5.125,5.162
		C4.768,4.5,4.726,4.434,4.66,4.329C4.639,4.276,4.588,4.176,4.551,4.107C4.513,4.038,4.474,3.97,4.436,3.914
		C4.394,3.821,4.281,3.601,3.977,3.038L3.133,1.477C2.642,0.568,2.499,0.224,2.521,0.225c0.023,0.039,0.042,0.067,0.049,0.076
		c0.016,0.018,0.019,0.016,0.023,0.013c0.008-0.004,0.01-0.018-0.035-0.108c0.01-0.018,0.205,0.259,0.521,0.842l1.127,2.084
		c0.219,0.405,0.311,0.56,0.369,0.656C4.596,3.84,4.63,3.911,4.667,3.98C4.705,4.049,4.75,4.126,4.776,4.163
		C4.824,4.265,4.878,4.376,5.172,4.92L6.171,6.767z M5.162,5.027C4.852,4.454,4.778,4.328,4.731,4.252
		C4.71,4.199,4.664,4.109,4.621,4.03c-0.042-0.079-0.087-0.157-0.13-0.223c-0.052-0.113-0.216-0.42-0.478-0.904L3.025,1.076
		C2.876,0.799,2.817,0.703,2.807,0.709C2.795,0.715,2.832,0.797,2.992,1.094l1.015,1.877c0.353,0.652,0.433,0.788,0.486,0.874
		c0.021,0.052,0.062,0.132,0.099,0.201C4.63,4.115,4.68,4.203,4.712,4.25C4.768,4.373,4.92,4.66,5.123,5.035l1.058,1.956
		c0.123,0.228,0.186,0.334,0.198,0.327S6.342,7.21,6.209,6.963L5.162,5.027z"/>
	<path d="M5.998,6.86c0.294,0.543,0.511,1.001,0.484,1.015C6.464,7.847,6.451,7.828,6.437,7.811
		C6.424,7.792,6.412,7.786,6.408,7.788C6.399,7.792,6.413,7.836,6.443,7.896c-0.014,0.007-0.14-0.142-0.52-0.843L4.952,5.256
		C4.594,4.594,4.553,4.526,4.487,4.422C4.466,4.37,4.415,4.27,4.378,4.2C4.34,4.131,4.301,4.062,4.263,4.007
		C4.221,3.915,4.108,3.695,3.804,3.132L2.96,1.571C2.469,0.662,2.327,0.317,2.348,0.318C2.371,0.357,2.39,0.386,2.396,0.394
		C2.412,0.411,2.415,0.409,2.42,0.407c0.009-0.005,0.01-0.018-0.035-0.109C2.395,0.28,2.59,0.558,2.905,1.141l1.127,2.084
		c0.219,0.405,0.311,0.56,0.37,0.656c0.021,0.053,0.055,0.124,0.092,0.193c0.038,0.069,0.083,0.146,0.11,0.183
		C4.651,4.358,4.705,4.47,4.999,5.013L5.998,6.86z M4.99,5.12C4.68,4.547,4.605,4.421,4.559,4.345
		c-0.021-0.053-0.067-0.143-0.11-0.222c-0.042-0.079-0.087-0.157-0.13-0.223C4.267,3.788,4.104,3.48,3.842,2.997L2.854,1.169
		c-0.149-0.277-0.209-0.373-0.22-0.367C2.622,0.809,2.659,0.891,2.819,1.187l1.015,1.877C4.187,3.716,4.267,3.852,4.32,3.938
		C4.342,3.99,4.382,4.07,4.419,4.14c0.038,0.069,0.088,0.157,0.12,0.203c0.056,0.124,0.208,0.41,0.411,0.786l1.058,1.956
		c0.123,0.228,0.186,0.334,0.198,0.327C6.219,7.405,6.17,7.304,6.037,7.057L4.99,5.12z"/>
	<path d="M3.822,3.262c0.24,0.445,0.359,0.648,0.412,0.735C4.268,4.068,4.303,4.139,4.34,4.208c0.032,0.059,0.077,0.137,0.13,0.224
		c0.062,0.132,0.144,0.292,0.399,0.767l1.09,2.015c0.086,0.158,0.097,0.177,0.1,0.176S6.041,7.349,5.944,7.17L5.827,6.953
		L5.833,6.95l0.438,0.797C6.268,7.762,6.317,7.875,6.358,7.955c-0.038-0.056-0.075-0.1-0.082-0.096
		c-0.008,0.004,0.015,0.069,0.02,0.092C6.3,7.974,6.293,7.978,6.282,7.983C6.244,8.004,5.999,7.613,5.695,7.05L4.75,5.302
		C4.461,4.768,4.371,4.612,4.318,4.526c-0.03-0.074-0.083-0.172-0.115-0.231S4.116,4.137,4.072,4.071
		C4.035,3.989,3.927,3.78,3.617,3.207l-0.859-1.59C2.224,0.629,2.159,0.421,2.182,0.409c0.015-0.008,0.035,0.006,0.06,0.032
		c0.025,0.024,0.043,0.04,0.052,0.035C2.3,0.473,2.294,0.45,2.258,0.367c0.067,0.117,0.113,0.182,0.114,0.168l0.46,0.862L2.828,1.4
		L2.673,1.113C2.599,0.975,2.576,0.936,2.572,0.938s0.017,0.042,0.091,0.18L3.822,3.262z M4.751,5.096
		C4.526,4.681,4.442,4.535,4.383,4.44C4.369,4.396,4.318,4.296,4.286,4.236C4.26,4.188,4.2,4.079,4.154,4.015
		C4.102,3.902,4.014,3.733,3.795,3.328L2.716,1.332c-0.214-0.395-0.247-0.44-0.259-0.435c-0.011,0.006,0.01,0.059,0.224,0.454
		l1.074,1.986c0.229,0.425,0.342,0.619,0.384,0.686C4.159,4.076,4.2,4.156,4.237,4.226s0.081,0.147,0.131,0.223
		C4.422,4.56,4.502,4.72,4.722,5.125l1.015,1.877c0.203,0.375,0.296,0.543,0.311,0.534c0.015-0.007-0.072-0.178-0.275-0.553
		L4.751,5.096z"/>
	<path d="M2.429,1.169C2.386,1.09,2.356,1.042,2.354,1.043C2.352,1.044,2.383,1.104,2.409,1.154L2.594,1.5L2.59,1.503L2.125,0.644
		c0.006-0.003-0.02-0.066-0.07-0.166c0.022,0.039,0.037,0.057,0.05,0.074c0.01,0.008,0.019,0.016,0.021,0.015
		C2.132,0.562,2.122,0.53,2.091,0.458C2.145,0.556,2.195,0.631,2.2,0.629L2.64,1.45L2.636,1.453L2.471,1.146
		C2.433,1.077,2.409,1.039,2.405,1.041C2.402,1.042,2.439,1.112,2.461,1.151L3.616,3.31c0.271,0.505,0.36,0.661,0.423,0.767
		C4.058,4.118,4.097,4.199,4.14,4.278c0.037,0.069,0.083,0.146,0.118,0.204c0.057,0.123,0.12,0.254,0.466,0.898l1.337,2.507
		C6.066,7.909,6.096,7.97,6.142,8.06C6.123,8.031,6.108,8.014,6.093,7.997C6.078,7.979,6.067,7.972,6.063,7.974
		c-0.009,0.004,0.002,0.05,0.031,0.111C6.039,7.987,6.009,7.94,5.994,7.923L4.63,5.43C4.209,4.661,4.188,4.635,4.133,4.55
		c-0.021-0.053-0.067-0.143-0.1-0.202C3.996,4.279,3.939,4.182,3.914,4.145c-0.045-0.091-0.179-0.35-0.416-0.784L2.335,1.232
		c-0.043-0.079-0.07-0.127-0.074-0.125C2.258,1.108,2.294,1.178,2.321,1.228l0.165,0.306L2.481,1.536L2.032,0.719
		c0.005-0.003-0.031-0.085-0.083-0.185C1.974,0.572,1.988,0.59,2.003,0.607c0.011,0.007,0.021,0.014,0.025,0.012
		c0.008-0.004,0.003-0.04-0.029-0.112c0.055,0.098,0.104,0.161,0.109,0.158l0.438,0.81L2.542,1.477L2.369,1.162
		C2.348,1.123,2.32,1.074,2.317,1.076s0.034,0.07,0.071,0.14l0.545,0.996c0.056,0.098,0.117,0.204,0.124,0.201l0.02-0.01
		c0.006-0.003-0.045-0.104-0.104-0.213L2.429,1.169z M4.482,5.012c-0.107-0.197-0.243-0.443-0.278-0.5
		C4.18,4.46,4.151,4.399,4.098,4.301C4.05,4.212,4.01,4.144,3.986,4.105C3.948,4.024,3.788,3.714,3.65,3.457
		S3.466,3.123,3.456,3.128C3.445,3.134,3.479,3.205,3.625,3.471c0.156,0.286,0.301,0.54,0.357,0.636
		c0.028,0.062,0.059,0.122,0.103,0.2c0.043,0.079,0.082,0.147,0.117,0.205c0.03,0.061,0.205,0.387,0.27,0.505l0.52,0.957
		c0.054,0.099,0.076,0.138,0.078,0.137S5.051,6.07,4.997,5.972L4.482,5.012z"/>
	<path d="M5.618,7.398c0.075,0.138,0.093,0.167,0.095,0.166c0.002-0.001-0.018-0.042-0.092-0.18L5.498,7.156l0.004-0.002
		l0.441,0.809C5.938,7.966,5.971,8.05,6.011,8.13C5.998,8.112,5.979,8.083,5.963,8.067c-0.016-0.018-0.025-0.024-0.03-0.022
		c-0.011,0.006,0.012,0.07,0.03,0.111C5.916,8.079,5.865,8.005,5.857,8.009L5.42,7.186l0.004-0.002L5.568,7.45
		c0.044,0.079,0.066,0.118,0.07,0.116c0.004-0.003-0.022-0.053-0.092-0.181L4.5,5.449C4.212,4.916,4.135,4.778,4.063,4.664
		C4.047,4.622,4.001,4.531,3.959,4.452C3.916,4.373,3.876,4.306,3.85,4.269c-0.057-0.123-0.15-0.302-0.391-0.747L2.385,1.537
		C2.235,1.26,2.148,1.104,2.131,1.112C2.115,1.121,2.196,1.281,2.346,1.558l0.268,0.494C2.848,2.486,2.942,2.652,2.998,2.75
		c0.042,0.118,0.099,0.227,0.414,0.81L3.408,3.563C3.109,3.01,3.024,2.864,2.95,2.764C2.9,2.663,2.816,2.504,2.582,2.069
		L2.277,1.506C2.031,1.052,1.955,0.914,1.893,0.808C1.895,0.793,1.858,0.711,1.81,0.61c0.014,0.019,0.026,0.037,0.034,0.045
		c0.008,0.008,0.016,0.017,0.019,0.016c0.003-0.002-0.004-0.023-0.005-0.036C1.852,0.613,1.845,0.591,1.849,0.588
		C1.857,0.584,1.869,0.59,1.894,0.615C1.917,0.641,1.94,0.666,1.95,0.661c0.008-0.004-0.004-0.036-0.036-0.108
		C1.965,0.641,2.039,0.754,2.046,0.75l0.428,0.803L2.47,1.555L2.314,1.269c-0.037-0.069-0.06-0.108-0.062-0.106
		C2.249,1.164,2.27,1.204,2.328,1.312l1.181,2.184C3.754,3.95,3.866,4.145,3.921,4.23c0.013,0.031,0.027,0.062,0.042,0.092
		c0.014,0.031,0.035,0.07,0.052,0.1c0.037,0.069,0.087,0.157,0.119,0.204C4.18,4.729,4.357,5.066,4.55,5.422L5.618,7.398z"/>
	<path d="M5.472,7.477c0.075,0.138,0.093,0.167,0.096,0.166c0.001-0.001-0.019-0.042-0.093-0.18L5.352,7.235l0.005-0.002l0.44,0.808
		C5.791,8.045,5.824,8.129,5.865,8.209C5.853,8.19,5.832,8.163,5.816,8.146c-0.014-0.018-0.025-0.025-0.03-0.022
		c-0.01,0.005,0.013,0.07,0.03,0.111C5.771,8.158,5.719,8.084,5.711,8.088L5.273,7.265l0.005-0.002l0.145,0.267
		c0.044,0.078,0.065,0.117,0.069,0.115S5.47,7.593,5.4,7.464L4.354,5.528C4.065,4.995,3.989,4.857,3.918,4.743
		C3.901,4.701,3.855,4.61,3.813,4.531C3.771,4.452,3.73,4.385,3.704,4.348C3.647,4.225,3.553,4.046,3.312,3.602L2.238,1.616
		C2.089,1.339,2.003,1.183,1.985,1.191C1.969,1.2,2.051,1.36,2.2,1.637l0.268,0.494C2.702,2.565,2.796,2.731,2.852,2.83
		c0.042,0.118,0.1,0.227,0.415,0.81L3.262,3.642c-0.299-0.553-0.383-0.7-0.458-0.799c-0.05-0.101-0.134-0.26-0.368-0.694
		L2.131,1.585C1.885,1.131,1.809,0.993,1.746,0.887c0.003-0.015-0.033-0.098-0.083-0.198C1.677,0.708,1.69,0.726,1.697,0.734
		C1.705,0.743,1.714,0.751,1.716,0.75C1.72,0.748,1.712,0.727,1.712,0.714C1.705,0.692,1.698,0.669,1.703,0.667
		c0.009-0.005,0.021,0.001,0.045,0.027C1.771,0.72,1.794,0.745,1.804,0.74C1.812,0.736,1.8,0.704,1.769,0.632
		C1.818,0.72,1.893,0.833,1.9,0.829l0.428,0.803L2.323,1.634L2.168,1.348C2.131,1.278,2.108,1.24,2.106,1.241
		c-0.004,0.002,0.017,0.042,0.075,0.15l1.181,2.184c0.245,0.454,0.358,0.649,0.413,0.734c0.012,0.032,0.026,0.062,0.041,0.092
		c0.015,0.031,0.036,0.07,0.053,0.1C3.906,4.57,3.955,4.658,3.988,4.705c0.046,0.103,0.223,0.441,0.415,0.797L5.472,7.477z"/>
</g>
<g>
</g>
<g>
</g>
<g>
</g>
<g>
</g>
<g>
	<path d="M8.552,4.695C8.55,4.704,8.622,4.736,8.751,4.774c-0.1-0.023-0.145-0.028-0.146-0.02C8.601,4.767,8.632,4.783,8.651,4.797
		s0.051,0.03,0.048,0.041C8.685,4.889,8.04,4.731,7.424,4.559L5.25,3.948C5.013,3.882,4.637,3.764,4.523,3.711
		C4.391,3.689,4.114,3.63,3.693,3.512L1.487,2.893C0.568,2.635,0.396,2.543,0.402,2.52c0.004-0.016,0.017-0.022,0.053-0.021
		c0.035,0,0.069,0.002,0.073-0.012C0.531,2.478,0.5,2.463,0.446,2.445c0.109,0.029,0.21,0.042,0.201,0.032l0.96,0.275L1.605,2.759
		L1.303,2.674c-0.14-0.039-0.184-0.051-0.185-0.047s0.075,0.026,0.194,0.06L3.464,3.29c0.573,0.161,0.779,0.213,0.911,0.243
		c0.063,0.023,0.128,0.044,0.204,0.064C4.655,3.619,4.73,3.639,4.808,3.654c0.095,0.037,0.268,0.088,0.981,0.288L7.93,4.543
		c0.108,0.03,0.151,0.041,0.152,0.038C8.083,4.579,8.04,4.565,7.943,4.538L7.607,4.443l0.002-0.005L8.552,4.695z M1.297,2.74
		C1.069,2.676,0.906,2.635,0.902,2.649C0.897,2.665,1.059,2.714,1.286,2.777l2.552,0.717c0.185,0.051,0.379,0.103,0.384,0.087
		c0.005-0.018-0.2-0.077-0.373-0.126L1.297,2.74z M5.135,3.816c-0.26-0.072-0.369-0.096-0.372-0.084
		c-0.003,0.01,0.07,0.041,0.361,0.122L7.73,4.586C7.958,4.649,8.133,4.693,8.137,4.68c0.005-0.018-0.157-0.065-0.396-0.132
		L5.135,3.816z"/>
	<path d="M3.564,3.514c0.562,0.158,0.704,0.192,0.77,0.206c0.043,0.016,0.128,0.044,0.203,0.064c0.087,0.024,0.186,0.05,0.219,0.054
		C4.863,3.873,5.012,3.92,5.521,4.062l2.314,0.649c0.141,0.04,0.186,0.051,0.187,0.049C8.022,4.757,7.968,4.74,7.838,4.704
		L7.557,4.625L7.558,4.62l0.932,0.255C8.477,4.877,8.582,4.921,8.668,4.947c-0.034-0.006-0.057-0.008-0.079-0.01
		s-0.036,0-0.037,0.005C8.548,4.954,8.589,4.977,8.653,4.999c-0.109-0.028-0.21-0.044-0.201-0.034L7.47,4.682l0.002-0.005
		l0.411,0.115c0.097,0.027,0.13,0.035,0.131,0.032c0.001-0.002-0.042-0.016-0.15-0.046L5.506,4.117
		c-0.54-0.152-0.684-0.186-0.771-0.205C4.704,3.898,4.607,3.869,4.521,3.844C4.435,3.82,4.358,3.803,4.313,3.794
		C4.218,3.761,4.003,3.695,3.55,3.568L1.268,2.928C1.062,2.87,1.029,2.862,1.028,2.865c-0.001,0.004,0.043,0.016,0.129,0.04
		l0.271,0.076L1.426,2.988l-0.865-0.24C0.572,2.744,0.456,2.7,0.36,2.67c0.033,0.007,0.065,0.013,0.079,0.012
		c0.021,0.002,0.034,0,0.036-0.008c0.004-0.014-0.038-0.03-0.102-0.055c0.121,0.029,0.22,0.047,0.243,0.046l0.896,0.259L1.512,2.929
		L1.177,2.835C1.059,2.802,1.025,2.793,1.024,2.797c-0.001,0.002,0.052,0.02,0.225,0.067L3.564,3.514z"/>
	<path d="M1.628,3.139c-0.465-0.131-0.596-0.164-0.597-0.16C1.03,2.98,1.042,2.984,1.14,3.012l0.291,0.082L1.429,3.1L0.508,2.848
		C0.511,2.84,0.416,2.802,0.331,2.773c0.022,0.004,0.056,0.008,0.08,0.009C0.433,2.783,0.446,2.78,0.447,2.775
		C0.45,2.768,0.409,2.742,0.346,2.72c0.077,0.019,0.211,0.042,0.213,0.036l0.97,0.281L1.526,3.042L1.235,2.96
		C1.16,2.938,1.084,2.918,1.083,2.922s0.02,0.011,0.181,0.056l2.023,0.567C3.816,3.693,4.144,3.78,4.318,3.82
		C4.35,3.833,4.381,3.844,4.413,3.854c0.033,0.01,0.064,0.021,0.097,0.028c0.076,0.021,0.153,0.04,0.23,0.055
		c0.169,0.062,0.558,0.172,1.25,0.366l1.816,0.51c0.151,0.042,0.162,0.044,0.162,0.042C7.97,4.853,7.95,4.846,7.798,4.803
		L7.495,4.718l0.001-0.005l0.997,0.272C8.471,4.987,8.542,5.02,8.64,5.049c-0.023-0.004-0.057-0.01-0.079-0.012
		s-0.035,0-0.037,0.004C8.521,5.05,8.542,5.064,8.56,5.078c0.021,0.014,0.062,0.034,0.058,0.049
		C8.609,5.156,8.283,5.109,7.473,4.882L5.45,4.314C4.835,4.142,4.622,4.068,4.455,4C4.31,3.976,4.077,3.929,3.558,3.783L1.146,3.107
		C1.049,3.08,0.995,3.065,0.994,3.068c0,0.002,0.021,0.009,0.086,0.027l0.313,0.088L1.393,3.189L0.493,2.943
		C0.495,2.938,0.39,2.896,0.305,2.869C0.326,2.875,0.349,2.877,0.36,2.877C0.372,2.876,0.373,2.873,0.373,2.87
		c0.002-0.005-0.007-0.017-0.059-0.036c0.13,0.035,0.295,0.071,0.297,0.064L3.683,3.76c0.399,0.112,0.466,0.123,0.47,0.108
		c0.004-0.014-0.069-0.041-0.448-0.147L1.628,3.139z M5.099,4.112C4.796,4.027,4.708,4.01,4.704,4.023s0.08,0.045,0.513,0.167
		l2.401,0.674C7.953,4.958,8.043,4.971,8.046,4.96C8.05,4.948,7.91,4.901,7.641,4.825L5.099,4.112z"/>
	<path d="M1.056,3.224C0.958,3.197,0.925,3.19,0.925,3.193C0.924,3.197,0.978,3.213,1.042,3.23l0.292,0.082L1.333,3.319L0.467,3.081
		c0.002-0.007-0.104-0.046-0.2-0.077c0.044,0.01,0.066,0.011,0.09,0.012c0.012-0.002,0.025-0.005,0.026-0.01
		C0.386,2.997,0.356,2.977,0.281,2.95C0.379,2.975,0.48,2.988,0.482,2.982l0.852,0.247L1.332,3.234l-0.28-0.078
		c-0.086-0.024-0.119-0.031-0.12-0.029C0.931,3.13,0.996,3.148,1.05,3.164l2.379,0.667c0.41,0.115,0.66,0.181,0.749,0.198
		C4.22,4.045,4.306,4.072,4.382,4.094C4.457,4.115,4.544,4.137,4.6,4.147C4.695,4.181,4.889,4.24,5.375,4.377l2.4,0.674
		c0.195,0.055,0.25,0.066,0.252,0.061C8.029,5.104,7.977,5.085,7.781,5.03L6.786,4.751C6.376,4.636,6.31,4.62,6.201,4.594
		C6.087,4.542,5.948,4.498,5.3,4.315l0.001-0.004c0.572,0.16,0.779,0.214,0.914,0.231c0.054,0.019,0.214,0.069,0.581,0.172
		l1.601,0.449C8.395,5.17,8.49,5.207,8.587,5.238C8.553,5.23,8.53,5.228,8.508,5.225S8.473,5.222,8.472,5.226
		C8.471,5.231,8.523,5.254,8.577,5.273c-0.034-0.008-0.057-0.01-0.08-0.011C8.475,5.262,8.461,5.265,8.46,5.27
		C8.455,5.285,8.495,5.309,8.561,5.332C8.537,5.328,8.504,5.321,8.482,5.317C8.46,5.314,8.447,5.315,8.446,5.318
		C8.444,5.325,8.485,5.345,8.551,5.367C8.452,5.343,8.352,5.324,8.35,5.332L6.749,4.883c-0.367-0.104-0.53-0.145-0.585-0.156
		C6.039,4.671,5.834,4.61,5.262,4.449l0.002-0.005c0.648,0.183,0.79,0.217,0.914,0.232C6.284,4.711,6.35,4.73,6.76,4.846
		l0.995,0.279C7.95,5.18,8.005,5.191,8.007,5.184C8.008,5.178,7.955,5.16,7.76,5.105l-2.4-0.674C4.873,4.295,4.655,4.24,4.589,4.226
		C4.558,4.213,4.461,4.183,4.385,4.161C4.298,4.137,4.212,4.115,4.178,4.11C4.115,4.087,3.899,4.021,3.413,3.886L1.056,3.224z"/>
	<path d="M1.083,3.38c-0.13-0.036-0.164-0.043-0.165-0.04c0,0.002,0.043,0.016,0.14,0.043l0.336,0.095L1.393,3.482L0.429,3.219
		c0.002-0.006-0.126-0.053-0.201-0.075c0.021,0.004,0.056,0.009,0.079,0.01c0.021,0.001,0.035-0.001,0.037-0.008
		c0.004-0.014-0.038-0.034-0.102-0.057c0.087,0.022,0.231,0.048,0.233,0.04l0.972,0.28L1.446,3.414L1.089,3.313
		C0.971,3.28,0.928,3.27,0.927,3.273C0.926,3.276,0.979,3.292,1.098,3.325l2.194,0.616c0.551,0.154,0.792,0.218,0.9,0.24
		C4.257,4.206,4.32,4.227,4.406,4.251c0.098,0.027,0.196,0.052,0.262,0.064c0.086,0.03,0.279,0.09,0.981,0.287l2.098,0.589
		c0.151,0.042,0.174,0.048,0.174,0.045c0.001-0.003-0.053-0.02-0.149-0.047L7.469,5.105L7.47,5.1l0.932,0.256
		c-0.002,0.006,0.082,0.04,0.136,0.057C8.514,5.41,8.48,5.404,8.458,5.403S8.422,5.404,8.42,5.41
		C8.417,5.422,8.469,5.449,8.521,5.47c-0.067-0.016-0.167-0.03-0.169-0.024L7.438,5.179l0.001-0.005l0.356,0.1
		c0.097,0.027,0.129,0.035,0.13,0.033c0.001-0.006-0.062-0.025-0.268-0.082l-2.39-0.671C4.791,4.42,4.638,4.385,4.633,4.401
		C4.628,4.42,4.843,4.487,5.254,4.603l2.53,0.71c0.097,0.027,0.119,0.033,0.12,0.029C7.905,5.34,7.894,5.336,7.775,5.303l-0.39-0.11
		l0.002-0.005l0.974,0.269C8.359,5.463,8.454,5.5,8.508,5.518c-0.022-0.004-0.044-0.007-0.068-0.01
		C8.418,5.506,8.394,5.506,8.392,5.513C8.388,5.526,8.429,5.547,8.493,5.57c-0.088-0.021-0.198-0.043-0.2-0.037L7.397,5.276
		l0.001-0.006l0.357,0.1C7.853,5.397,7.875,5.402,7.875,5.4c0.001-0.002-0.021-0.01-0.117-0.037L5.605,4.76
		C4.827,4.541,4.675,4.504,4.585,4.488C4.522,4.465,4.436,4.439,4.35,4.414C4.252,4.388,4.154,4.362,4.121,4.358
		C4.047,4.33,3.865,4.271,3.248,4.099L1.011,3.471C0.858,3.428,0.838,3.425,0.837,3.427C0.836,3.43,0.867,3.439,1.009,3.479
		L1.332,3.57L1.33,3.575L0.4,3.32c0.001-0.006-0.093-0.045-0.201-0.078c0.033,0.007,0.066,0.012,0.08,0.01
		c0.021,0.001,0.035-0.001,0.036-0.007c0.004-0.012-0.038-0.033-0.101-0.056c0.086,0.021,0.21,0.042,0.212,0.035L1.376,3.5
		L1.374,3.505L1.028,3.408C0.876,3.365,0.865,3.364,0.864,3.366c-0.001,0.003,0.01,0.007,0.162,0.05L3.535,4.12
		c0.539,0.151,0.629,0.163,0.633,0.151c0.004-0.016-0.101-0.055-0.619-0.2L1.083,3.38z"/>
	<path d="M1.036,3.588c-0.26-0.072-0.338-0.089-0.342-0.075C0.691,3.525,0.767,3.551,1.242,3.685l0.778,0.218
		c0.249,0.07,0.466,0.13,0.597,0.162C2.73,4.116,2.826,4.149,3.496,4.337L3.495,4.342c-0.713-0.2-0.769-0.211-0.915-0.232
		C2.484,4.078,2.279,4.018,2.009,3.941l-0.962-0.27c-0.53-0.148-0.595-0.166-0.683-0.186C0.344,3.475,0.249,3.438,0.186,3.417
		C0.208,3.42,0.23,3.424,0.241,3.424c0.012-0.001,0.024-0.001,0.026-0.005C0.27,3.41,0.238,3.396,0.218,3.385
		C0.197,3.374,0.167,3.359,0.17,3.35c0.002-0.009,0.047-0.003,0.07-0.004c0.023,0,0.048-0.002,0.05-0.01
		C0.292,3.33,0.262,3.314,0.187,3.289c0.098,0.025,0.21,0.044,0.232,0.044l0.972,0.279L1.389,3.618L1.043,3.521
		C0.913,3.484,0.87,3.473,0.869,3.477c-0.001,0.003,0.042,0.017,0.16,0.05l2.076,0.583C3.81,4.307,4.07,4.371,4.179,4.396
		c0.042,0.018,0.139,0.049,0.214,0.069c0.066,0.019,0.153,0.039,0.219,0.053c0.097,0.033,0.365,0.115,0.862,0.255l2.238,0.628
		c0.087,0.024,0.12,0.032,0.121,0.03c0.001-0.003-0.032-0.014-0.119-0.039l-0.356-0.1l0.002-0.006l0.932,0.255
		c0.008,0.012,0.081,0.04,0.189,0.075C8.446,5.611,8.424,5.608,8.401,5.606C8.378,5.605,8.365,5.608,8.363,5.613
		C8.36,5.624,8.392,5.641,8.423,5.655c0.029,0.016,0.04,0.022,0.039,0.027C8.46,5.69,8.436,5.689,8.413,5.689
		c-0.024-0.001-0.069-0.008-0.071,0C8.341,5.694,8.394,5.716,8.447,5.736c-0.088-0.022-0.188-0.042-0.2-0.038
		C8.194,5.68,8.043,5.635,7.729,5.547L6.69,5.256c-0.28-0.079-0.464-0.131-0.584-0.16C5.981,5.041,5.842,4.998,5.225,4.825
		L5.227,4.82C5.822,4.987,5.985,5.028,6.12,5.047C6.216,5.078,6.356,5.119,6.714,5.22l0.66,0.185
		c0.378,0.106,0.54,0.146,0.544,0.135c0.003-0.012-0.113-0.052-0.546-0.173L5.221,4.762C4.745,4.629,4.7,4.621,4.698,4.629
		C4.697,4.633,4.793,4.663,4.857,4.682c0.087,0.024,0.12,0.031,0.174,0.046c0.065,0.018,0.152,0.04,0.239,0.064
		c0.173,0.049,0.299,0.097,0.287,0.099C5.504,4.874,5.449,4.858,5.385,4.84c-0.065-0.018-0.13-0.034-0.24-0.058
		C5.09,4.771,4.959,4.738,4.851,4.708c-0.118-0.033-0.227-0.067-0.3-0.095L4.341,4.57L4.162,4.503
		c-0.089-0.018-0.198-0.044-0.35-0.086c-0.13-0.036-0.215-0.063-0.301-0.093C3.384,4.279,3.32,4.257,3.244,4.236
		C3.18,4.218,3.114,4.2,3.06,4.188C3.041,4.174,3.151,4.195,3.346,4.25c0.108,0.031,0.204,0.061,0.28,0.083
		c0.063,0.021,0.118,0.036,0.205,0.061c0.097,0.027,0.163,0.04,0.164,0.036c0.003-0.01-0.138-0.05-0.743-0.22L1.036,3.588z"/>
	<path d="M1.422,3.872C0.957,3.741,0.826,3.707,0.825,3.713C0.824,3.715,0.836,3.718,0.934,3.745l0.291,0.082L1.224,3.833
		L0.303,3.582C0.305,3.574,0.21,3.535,0.125,3.507c0.022,0.003,0.057,0.008,0.08,0.009C0.227,3.517,0.24,3.514,0.241,3.509
		c0.003-0.008-0.037-0.033-0.101-0.056c0.077,0.02,0.21,0.042,0.212,0.036l0.97,0.281L1.32,3.775L1.029,3.693
		C0.954,3.672,0.878,3.652,0.877,3.656c-0.001,0.002,0.021,0.01,0.182,0.055l2.023,0.567c0.529,0.148,0.855,0.235,1.03,0.276
		c0.032,0.012,0.062,0.022,0.096,0.033c0.032,0.01,0.063,0.02,0.096,0.029c0.076,0.021,0.153,0.039,0.23,0.055
		c0.169,0.061,0.559,0.171,1.251,0.365l1.816,0.51c0.151,0.042,0.161,0.044,0.162,0.042c0.001-0.003-0.02-0.01-0.172-0.053
		L7.289,5.451L7.29,5.445l0.997,0.273c-0.022,0.002,0.05,0.034,0.146,0.064C8.411,5.777,8.378,5.772,8.355,5.771
		c-0.023-0.003-0.036,0-0.037,0.004C8.315,5.783,8.336,5.798,8.354,5.812c0.021,0.014,0.062,0.034,0.058,0.05
		C8.403,5.89,8.078,5.843,7.268,5.615L5.245,5.048C4.63,4.875,4.416,4.802,4.249,4.733C4.104,4.709,3.872,4.662,3.353,4.517
		L0.941,3.84C0.844,3.812,0.789,3.799,0.789,3.801c-0.001,0.003,0.021,0.01,0.086,0.028l0.313,0.088L1.187,3.923L0.287,3.678
		c0.002-0.007-0.104-0.049-0.188-0.075C0.12,3.607,0.143,3.61,0.154,3.609c0.012,0,0.013-0.003,0.014-0.006
		c0.001-0.005-0.007-0.016-0.06-0.036c0.13,0.035,0.295,0.071,0.297,0.064l3.071,0.861c0.399,0.112,0.466,0.122,0.471,0.108
		c0.003-0.014-0.07-0.041-0.449-0.146L1.422,3.872z M4.893,4.846C4.59,4.761,4.502,4.743,4.498,4.757s0.08,0.046,0.513,0.167
		l2.401,0.674c0.335,0.094,0.425,0.106,0.429,0.096c0.003-0.012-0.137-0.059-0.406-0.135L4.893,4.846z"/>
</g>
<g>
	<path d="M4.854,0.933c0.034-0.117,0.04-0.14,0.037-0.14C4.889,0.792,4.875,0.834,4.844,0.942L4.755,1.244L4.749,1.242l0.264-0.918
		c0.004,0.014,0.045-0.08,0.084-0.21c-0.01,0.044-0.017,0.078-0.015,0.09C5.079,0.229,5.084,0.229,5.091,0.231
		c0.01,0.003,0.018-0.007,0.029-0.027c0.015-0.031,0.033-0.073,0.04-0.07c0.008,0.002-0.002,0.059-0.006,0.092
		C5.149,0.26,5.146,0.294,5.153,0.297C5.16,0.299,5.182,0.258,5.197,0.215C5.171,0.312,5.151,0.401,5.155,0.413
		C5.119,0.521,5.034,0.799,4.89,1.295l-0.242,0.83C4.587,2.33,4.56,2.428,4.54,2.515C4.49,2.618,4.441,2.767,4.275,3.338L4.27,3.337
		c0.167-0.571,0.205-0.724,0.216-0.826c0.03-0.085,0.061-0.181,0.124-0.396l0.267-0.916c0.117-0.399,0.131-0.466,0.117-0.47
		C4.98,0.725,4.957,0.788,4.84,1.188L4.183,3.44c-0.11,0.378-0.132,0.465-0.125,0.467S4.084,3.855,4.105,3.78
		c0.017-0.054,0.031-0.108,0.048-0.172c0.018-0.066,0.051-0.185,0.085-0.303c0.035-0.119,0.077-0.248,0.087-0.245
		c-0.015,0.042-0.031,0.096-0.047,0.15c-0.013,0.043-0.03,0.108-0.052,0.206c-0.021,0.088-0.055,0.23-0.084,0.328
		c-0.027,0.097-0.074,0.234-0.108,0.33l-0.04,0.199l-0.08,0.21C3.902,4.552,3.885,4.628,3.848,4.758
		C3.812,4.877,3.765,5.015,3.738,5.089C3.703,5.184,3.686,5.237,3.664,5.312C3.639,5.398,3.625,5.454,3.611,5.509
		C3.606,5.495,3.622,5.406,3.686,5.19c0.019-0.064,0.047-0.161,0.072-0.236s0.053-0.161,0.074-0.236
		c0.02-0.064,0.037-0.142,0.031-0.144C3.855,4.572,3.82,4.681,3.742,4.949L2.961,7.623C2.936,7.709,2.926,7.753,2.93,7.754
		c0.003,0.001,0.014-0.031,0.039-0.118l0.098-0.333L3.07,7.305L2.815,8.199C2.811,8.198,2.765,8.313,2.738,8.4
		c0.006-0.034,0.01-0.067,0.008-0.08C2.747,8.298,2.744,8.285,2.74,8.283C2.731,8.281,2.711,8.31,2.682,8.384
		c0.02-0.076,0.045-0.21,0.038-0.212l0.276-0.924l0.006,0.001L2.9,7.594C2.873,7.69,2.865,7.725,2.867,7.726
		c0.003,0,0.014-0.033,0.045-0.141l0.705-2.414c0.139-0.475,0.19-0.682,0.206-0.748C3.84,4.381,3.869,4.296,3.895,4.21
		c0.024-0.086,0.049-0.185,0.058-0.229c0.03-0.085,0.1-0.299,0.21-0.676L4.854,0.933z"/>
	<path d="M4.933,1.237c0.173-0.593,0.341-1.071,0.37-1.062C5.294,0.208,5.291,0.23,5.288,0.253S5.287,0.289,5.292,0.29
		c0.011,0.003,0.031-0.038,0.054-0.103C5.36,0.191,5.344,0.387,5.121,1.152L4.548,3.115C4.337,3.837,4.319,3.913,4.292,4.034
		c-0.021,0.051-0.056,0.16-0.077,0.234C4.192,4.343,4.172,4.42,4.16,4.486C4.125,4.582,4.051,4.817,3.871,5.433L3.374,7.136
		c-0.29,0.991-0.431,1.335-0.445,1.32c0.011-0.043,0.018-0.077,0.017-0.089c0.003-0.022-0.001-0.024-0.006-0.025
		C2.931,8.339,2.92,8.349,2.889,8.444c-0.02,0.005,0.035-0.328,0.221-0.965l0.665-2.274c0.129-0.442,0.173-0.616,0.198-0.727
		C3.994,4.427,4.02,4.353,4.041,4.277c0.022-0.076,0.045-0.163,0.052-0.208c0.038-0.105,0.078-0.222,0.251-0.815L4.933,1.237z
		 M4.426,3.185C4.243,3.81,4.207,3.951,4.188,4.039C4.166,4.091,4.135,4.187,4.11,4.272C4.085,4.358,4.062,4.446,4.046,4.523
		C4.004,4.64,3.903,4.974,3.749,5.503L3.167,7.495C3.078,7.798,3.053,7.907,3.065,7.911S3.109,7.83,3.203,7.507l0.599-2.048
		C4.01,4.747,4.048,4.595,4.07,4.495c0.021-0.052,0.05-0.137,0.072-0.213c0.021-0.075,0.047-0.174,0.057-0.229
		C4.247,3.927,4.34,3.616,4.46,3.205l0.623-2.134c0.072-0.248,0.103-0.369,0.089-0.373S5.121,0.802,5.043,1.071L4.426,3.185z"/>
	<path d="M5.121,1.292c0.174-0.593,0.342-1.07,0.37-1.062C5.482,0.264,5.48,0.286,5.477,0.309c-0.002,0.022,0,0.036,0.005,0.037
		c0.01,0.003,0.03-0.039,0.053-0.104C5.549,0.247,5.533,0.441,5.31,1.207L4.736,3.17C4.525,3.892,4.509,3.968,4.48,4.089
		C4.46,4.141,4.426,4.249,4.403,4.323C4.381,4.398,4.361,4.476,4.349,4.542C4.313,4.638,4.239,4.872,4.06,5.487L3.562,7.19
		C3.273,8.182,3.132,8.526,3.117,8.512c0.011-0.044,0.018-0.078,0.018-0.09c0.003-0.022-0.002-0.023-0.006-0.024
		C3.119,8.395,3.109,8.404,3.078,8.5C3.058,8.505,3.113,8.171,3.299,7.534L3.963,5.26c0.129-0.442,0.173-0.616,0.199-0.726
		C4.184,4.481,4.209,4.407,4.23,4.332c0.022-0.076,0.044-0.163,0.051-0.208C4.32,4.019,4.359,3.902,4.533,3.309L5.121,1.292z
		 M4.614,3.239C4.432,3.864,4.396,4.007,4.377,4.094C4.355,4.146,4.324,4.242,4.299,4.328s-0.048,0.173-0.063,0.25
		c-0.043,0.117-0.144,0.45-0.298,0.979L3.355,7.551C3.268,7.853,3.242,7.963,3.254,7.966C3.267,7.97,3.299,7.885,3.393,7.562
		L3.99,5.514c0.208-0.712,0.247-0.864,0.27-0.963C4.28,4.498,4.309,4.413,4.331,4.337c0.022-0.075,0.047-0.174,0.058-0.228
		c0.047-0.128,0.141-0.438,0.26-0.85l0.623-2.134c0.072-0.248,0.104-0.368,0.09-0.372s-0.051,0.103-0.13,0.372L4.614,3.239z"/>
	<path d="M4.138,5.382c0.142-0.486,0.2-0.716,0.224-0.813C4.389,4.495,4.412,4.42,4.435,4.345C4.453,4.279,4.477,4.192,4.5,4.095
		c0.048-0.138,0.104-0.309,0.254-0.826l0.643-2.199c0.051-0.173,0.057-0.195,0.053-0.196C5.446,0.872,5.433,0.915,5.376,1.109
		L5.307,1.346L5.301,1.345L5.55,0.47c0.013-0.007,0.057-0.123,0.084-0.209C5.621,0.327,5.617,0.386,5.625,0.388
		C5.634,0.39,5.663,0.327,5.676,0.309C5.689,0.288,5.697,0.29,5.709,0.294c0.041,0.012-0.061,0.462-0.24,1.077L4.912,3.278
		c-0.17,0.583-0.215,0.757-0.238,0.855c-0.03,0.073-0.062,0.181-0.081,0.245c-0.02,0.065-0.05,0.173-0.063,0.25
		c-0.031,0.085-0.102,0.31-0.284,0.936L3.738,7.3C3.424,8.377,3.323,8.571,3.299,8.564C3.283,8.56,3.278,8.535,3.277,8.5
		c0-0.036-0.002-0.06-0.011-0.062C3.26,8.436,3.247,8.455,3.215,8.54c0.035-0.131,0.047-0.21,0.037-0.2L3.53,7.403l0.005,0.002
		L3.444,7.718C3.4,7.868,3.389,7.911,3.393,7.912S3.41,7.871,3.455,7.721L4.138,5.382z M4.768,3.424
		c-0.133,0.453-0.176,0.615-0.2,0.726C4.546,4.19,4.512,4.297,4.493,4.362c-0.016,0.054-0.05,0.173-0.062,0.25
		c-0.042,0.116-0.1,0.299-0.229,0.742L3.568,7.531C3.441,7.962,3.434,8.019,3.445,8.022c0.013,0.004,0.035-0.05,0.161-0.48
		l0.633-2.167c0.136-0.464,0.192-0.681,0.208-0.758C4.47,4.565,4.498,4.479,4.52,4.405C4.542,4.33,4.564,4.242,4.584,4.154
		c0.04-0.117,0.096-0.288,0.225-0.729l0.599-2.05c0.119-0.408,0.171-0.593,0.153-0.598C5.546,0.772,5.487,0.956,5.368,1.364
		L4.768,3.424z"/>
	<path d="M4.336,5.415C4.5,4.854,4.535,4.714,4.55,4.646c0.017-0.042,0.045-0.126,0.067-0.202c0.024-0.086,0.051-0.184,0.055-0.218
		C4.709,4.12,4.758,3.971,4.906,3.464l0.673-2.307c0.041-0.141,0.052-0.184,0.05-0.185C5.625,0.972,5.609,1.025,5.57,1.155
		l-0.082,0.28L5.484,1.434l0.265-0.929c0.002,0.013,0.047-0.092,0.075-0.178c-0.008,0.034-0.01,0.057-0.012,0.079
		c-0.003,0.022,0,0.036,0.005,0.037c0.011,0.004,0.033-0.037,0.058-0.102c-0.029,0.11-0.047,0.209-0.037,0.201L5.545,1.521
		L5.54,1.521l0.12-0.41c0.027-0.096,0.036-0.13,0.033-0.131c-0.003,0-0.016,0.042-0.047,0.15L4.96,3.479
		c-0.157,0.539-0.193,0.682-0.213,0.77c-0.015,0.03-0.046,0.127-0.07,0.213C4.651,4.548,4.633,4.624,4.624,4.669
		C4.59,4.765,4.522,4.979,4.391,5.431L3.727,7.705C3.666,7.911,3.658,7.943,3.66,7.944c0.004,0.001,0.018-0.042,0.042-0.128
		l0.079-0.271l0.006,0.002L3.539,8.411C3.535,8.399,3.49,8.515,3.459,8.61c0.006-0.033,0.013-0.066,0.012-0.078
		C3.473,8.51,3.472,8.497,3.464,8.495C3.45,8.491,3.432,8.532,3.407,8.596c0.03-0.12,0.05-0.22,0.049-0.243L3.725,7.46l0.005,0.002
		L3.632,7.796c-0.034,0.118-0.044,0.15-0.04,0.151c0.003,0.001,0.02-0.052,0.07-0.225L4.336,5.415z"/>
	<path d="M3.815,7.779C3.74,8.038,3.723,8.115,3.736,8.119c0.013,0.003,0.039-0.07,0.178-0.545l0.227-0.776
		C4.213,6.55,4.275,6.333,4.31,6.202C4.361,6.09,4.396,5.994,4.59,5.326l0.005,0.002C4.387,6.039,4.376,6.094,4.354,6.239
		C4.32,6.335,4.258,6.539,4.18,6.809l-0.28,0.959C3.745,8.296,3.728,8.362,3.707,8.449c-0.012,0.02-0.051,0.114-0.071,0.178
		C3.639,8.605,3.643,8.582,3.643,8.57c-0.001-0.011,0-0.023-0.005-0.024C3.63,8.543,3.615,8.574,3.604,8.595
		c-0.012,0.02-0.025,0.051-0.036,0.048C3.56,8.641,3.565,8.596,3.565,8.571c0-0.023-0.002-0.047-0.01-0.05
		C3.55,8.52,3.534,8.551,3.508,8.625c0.025-0.098,0.047-0.21,0.046-0.232l0.289-0.969L3.85,7.426L3.748,7.771
		C3.711,7.9,3.699,7.943,3.702,7.944s0.017-0.042,0.052-0.16l0.604-2.07c0.204-0.701,0.272-0.962,0.3-1.069
		c0.017-0.042,0.049-0.139,0.07-0.214c0.02-0.065,0.041-0.153,0.055-0.218c0.035-0.096,0.119-0.364,0.264-0.859l0.652-2.232
		C5.725,1.035,5.732,1.003,5.73,1.002C5.727,1.001,5.717,1.033,5.69,1.119L5.587,1.475L5.581,1.473l0.265-0.927
		c0.012-0.01,0.041-0.082,0.078-0.189C5.916,0.39,5.913,0.412,5.912,0.436c-0.002,0.022,0,0.036,0.006,0.038
		c0.011,0.003,0.027-0.028,0.043-0.06c0.015-0.03,0.023-0.04,0.027-0.039c0.008,0.003,0.007,0.026,0.006,0.049
		c-0.001,0.023-0.008,0.069,0,0.071c0.004,0.002,0.026-0.051,0.047-0.104c-0.023,0.087-0.043,0.187-0.039,0.2
		c-0.02,0.053-0.066,0.202-0.157,0.516L5.542,2.142C5.461,2.421,5.408,2.604,5.377,2.725C5.32,2.848,5.276,2.987,5.098,3.603
		L5.092,3.602C5.266,3.008,5.308,2.844,5.327,2.71c0.033-0.096,0.075-0.234,0.18-0.591l0.192-0.658
		c0.109-0.377,0.151-0.54,0.139-0.544C5.827,0.914,5.786,1.03,5.66,1.462L5.033,3.606C4.896,4.081,4.887,4.125,4.895,4.128
		c0.005,0.001,0.036-0.095,0.055-0.159c0.025-0.087,0.033-0.118,0.048-0.174C5.015,3.73,5.039,3.644,5.063,3.557
		c0.051-0.172,0.1-0.298,0.103-0.286C5.148,3.324,5.132,3.379,5.113,3.442c-0.02,0.066-0.035,0.13-0.061,0.24
		C5.041,3.737,5.008,3.868,4.976,3.977C4.941,4.095,4.906,4.202,4.877,4.275L4.832,4.483L4.764,4.662
		c-0.02,0.089-0.046,0.198-0.09,0.349c-0.038,0.13-0.066,0.215-0.096,0.3c-0.047,0.127-0.07,0.19-0.092,0.267
		c-0.019,0.063-0.036,0.13-0.05,0.184C4.423,5.779,4.445,5.67,4.502,5.476c0.031-0.107,0.062-0.203,0.086-0.279
		C4.609,5.133,4.625,5.078,4.65,4.992c0.028-0.097,0.042-0.163,0.038-0.164C4.678,4.825,4.637,4.966,4.461,5.569L3.815,7.779z"/>
</g>
<g>
	<path d="M5.529,4.209C4.994,4.443,4.831,4.518,4.741,4.566C4.688,4.583,4.604,4.617,4.533,4.648
		c-0.072,0.031-0.164,0.074-0.234,0.11C4.193,4.796,4.067,4.846,3.471,5.106L1.339,6.035c-0.154,0.067-0.175,0.076-0.173,0.08
		c0.001,0.003,0.043-0.013,0.146-0.058l0.31-0.135l0.002,0.005l-0.903,0.4C0.716,6.319,0.65,6.337,0.566,6.369
		c0.019-0.013,0.038-0.023,0.058-0.035C0.643,6.321,0.662,6.308,0.66,6.304C0.656,6.296,0.592,6.317,0.549,6.33
		c0.08-0.039,0.17-0.09,0.146-0.087l3.555-1.599L4.248,4.64L1.262,5.941C1.148,5.99,1.139,5.998,1.14,6s0.044-0.014,0.177-0.071
		l0.268-0.117l0.003,0.005L0.684,6.217C0.68,6.209,0.583,6.24,0.52,6.263c0.01-0.006,0.04-0.022,0.059-0.033
		c0.02-0.013,0.039-0.025,0.037-0.029C0.611,6.193,0.547,6.213,0.504,6.226c0.072-0.032,0.15-0.075,0.147-0.082l0.888-0.381
		l0.002,0.005L1.264,5.889C1.16,5.933,1.131,5.949,1.131,5.951c0.002,0.004,0.033-0.008,0.197-0.08l2.091-0.91
		c0.524-0.229,0.738-0.33,0.81-0.365c0.084-0.03,0.156-0.061,0.229-0.092S4.621,4.429,4.67,4.4c0.074-0.025,0.51-0.207,1.086-0.458
		l2.473-1.074C8.23,2.875,8.299,2.86,8.414,2.815C8.303,2.87,8.266,2.897,8.269,2.906L5.439,4.171
		C5.019,4.359,4.795,4.464,4.715,4.505c-0.053,0.02-0.146,0.058-0.218,0.09c-0.083,0.036-0.144,0.063-0.233,0.11
		C4.159,4.748,3.901,4.859,3.717,4.942L2.764,5.368l0.001,0.003l0.958-0.417c0.288-0.126,0.492-0.218,0.553-0.249
		c0.063-0.023,0.146-0.056,0.229-0.092c0.071-0.031,0.163-0.074,0.213-0.102c0.104-0.04,0.343-0.141,0.837-0.355l2.162-0.942
		c0.135-0.059,0.154-0.07,0.152-0.072c0-0.002-0.032,0.009-0.156,0.062l-0.318,0.14L7.393,3.339l0.873-0.387
		C8.269,2.96,8.346,2.94,8.45,2.899C8.419,2.914,8.39,2.93,8.381,2.937C8.361,2.949,8.354,2.958,8.354,2.96
		c0.003,0.007,0.036-0.001,0.109-0.029c-0.101,0.049-0.18,0.094-0.177,0.1L7.42,3.402L7.418,3.398l0.37-0.162
		C7.871,3.2,7.891,3.188,7.889,3.186C7.888,3.183,7.836,3.205,7.671,3.277L5.529,4.209z"/>
	<path d="M7.537,3.054C7.785,2.947,7.854,2.91,7.849,2.896C7.844,2.885,7.77,2.913,7.316,3.11l-0.74,0.323
		C6.339,3.537,6.133,3.625,6.012,3.684C5.891,3.716,5.795,3.751,5.157,4.03L5.155,4.025c0.68-0.296,0.729-0.323,0.854-0.399
		c0.096-0.035,0.292-0.118,0.549-0.23l0.917-0.399c0.505-0.22,0.565-0.247,0.646-0.287c0.022-0.005,0.12-0.035,0.183-0.06
		C8.285,2.661,8.266,2.672,8.257,2.68C8.248,2.687,8.238,2.696,8.24,2.7C8.244,2.708,8.277,2.699,8.3,2.695
		c0.022-0.005,0.056-0.013,0.06-0.004c0.004,0.008-0.035,0.032-0.053,0.048S8.271,2.77,8.275,2.778
		c0.002,0.006,0.035-0.003,0.109-0.029c-0.092,0.043-0.19,0.098-0.209,0.113L7.247,3.26L7.245,3.254l0.329-0.144
		c0.124-0.054,0.164-0.073,0.163-0.076S7.694,3.049,7.581,3.098L5.604,3.959C4.936,4.251,4.691,4.365,4.59,4.415
		C4.547,4.427,4.453,4.465,4.381,4.498C4.319,4.524,4.238,4.562,4.178,4.593C4.083,4.628,3.823,4.736,3.35,4.942L1.218,5.87
		c-0.082,0.036-0.113,0.05-0.111,0.053c0.001,0.003,0.032-0.01,0.115-0.045l0.34-0.147l0.002,0.005L0.681,6.126
		C0.667,6.123,0.592,6.148,0.486,6.187c0.03-0.016,0.05-0.027,0.068-0.041S0.58,6.123,0.578,6.117
		c-0.004-0.01-0.037-0.003-0.07,0.005C0.474,6.129,0.461,6.128,0.459,6.125C0.456,6.117,0.475,6.103,0.494,6.089
		c0.018-0.014,0.057-0.037,0.053-0.045C0.545,6.041,0.491,6.056,0.438,6.074C0.52,6.038,0.608,5.988,0.616,5.978
		c0.053-0.019,0.197-0.08,0.496-0.211l0.988-0.43C2.368,5.22,2.543,5.143,2.654,5.091C2.786,5.054,2.922,5,3.508,4.744l0.003,0.005
		c-0.566,0.247-0.719,0.318-0.835,0.39C2.582,5.175,2.447,5.232,2.107,5.379L1.479,5.653C1.119,5.81,0.967,5.881,0.972,5.894
		c0.005,0.011,0.12-0.032,0.532-0.211l2.049-0.893C4.006,4.593,4.045,4.57,4.042,4.563C4.04,4.558,3.947,4.596,3.885,4.623
		C3.803,4.659,3.771,4.673,3.721,4.697C3.66,4.725,3.578,4.762,3.496,4.798C3.331,4.87,3.202,4.913,3.21,4.904
		c0.053-0.021,0.104-0.043,0.167-0.07C3.438,4.807,3.498,4.778,3.6,4.726C3.648,4.7,3.77,4.642,3.873,4.597
		c0.113-0.049,0.219-0.09,0.293-0.114l0.189-0.101l0.182-0.062c0.079-0.042,0.18-0.091,0.324-0.154
		c0.124-0.054,0.208-0.086,0.293-0.117C5.281,4.003,5.344,3.98,5.416,3.949c0.062-0.027,0.123-0.055,0.174-0.08
		c0.023-0.001-0.076,0.053-0.262,0.133c-0.103,0.045-0.195,0.082-0.27,0.112C4.997,4.138,4.945,4.161,4.863,4.197
		c-0.093,0.04-0.152,0.072-0.151,0.076C4.717,4.284,4.85,4.225,5.427,3.974L7.537,3.054z"/>
	<path d="M5.279,3.915C4.744,4.148,4.611,4.211,4.552,4.243C4.509,4.256,4.426,4.29,4.354,4.321C4.271,4.357,4.18,4.4,4.15,4.417
		C4.045,4.458,3.899,4.515,3.415,4.726l-2.203,0.96c-0.134,0.058-0.175,0.077-0.174,0.08C1.04,5.77,1.092,5.748,1.215,5.695
		l0.268-0.117l0.002,0.004L0.602,5.973c0.009-0.009-0.1,0.023-0.184,0.057c0.03-0.016,0.049-0.028,0.068-0.042
		C0.504,5.975,0.513,5.966,0.511,5.96c-0.005-0.01-0.05-0.001-0.114,0.021c0.103-0.048,0.19-0.099,0.178-0.1L1.514,5.48l0.002,0.005
		l-0.391,0.17C1.032,5.696,1.002,5.71,1.003,5.712s0.042-0.016,0.146-0.061l2.244-0.978C3.907,4.45,4.039,4.388,4.119,4.346
		c0.033-0.009,0.127-0.047,0.209-0.083s0.153-0.07,0.193-0.092c0.094-0.034,0.302-0.12,0.734-0.309l2.173-0.946
		c0.195-0.085,0.226-0.1,0.225-0.102c-0.001-0.003-0.042,0.014-0.125,0.05L7.271,2.977L7.269,2.971l0.822-0.362
		C8.084,2.62,8.201,2.58,8.295,2.543c-0.029,0.017-0.06,0.031-0.068,0.04C8.209,2.597,8.2,2.606,8.203,2.613
		c0.006,0.013,0.049,0.001,0.113-0.021c-0.111,0.055-0.2,0.104-0.219,0.119L7.241,3.076L7.238,3.071l0.319-0.139
		C7.671,2.882,7.701,2.869,7.7,2.865c-0.002-0.003-0.054,0.019-0.218,0.09L5.279,3.915z"/>
	<path d="M7.484,2.735c0.093-0.04,0.123-0.055,0.121-0.059C7.604,2.673,7.553,2.695,7.491,2.722L7.213,2.843L7.21,2.837l0.822-0.363
		c0.003,0.007,0.109-0.03,0.204-0.066c-0.041,0.02-0.059,0.034-0.078,0.048C8.15,2.464,8.143,2.474,8.145,2.479
		c0.004,0.008,0.039,0.006,0.113-0.02C8.166,2.501,8.079,2.554,8.082,2.562L7.266,2.908L7.264,2.903l0.268-0.117
		C7.613,2.75,7.644,2.735,7.643,2.733S7.58,2.757,7.528,2.78L5.263,3.767c-0.392,0.17-0.626,0.277-0.706,0.318
		C4.514,4.1,4.431,4.132,4.358,4.165C4.286,4.196,4.205,4.234,4.156,4.261C4.061,4.295,3.873,4.372,3.41,4.574L1.124,5.57
		C0.938,5.65,0.889,5.674,0.891,5.681c0.004,0.006,0.057-0.013,0.242-0.093L2.08,5.175c0.391-0.17,0.451-0.199,0.553-0.249
		c0.121-0.03,0.257-0.085,0.875-0.354L3.51,4.577C2.963,4.815,2.77,4.904,2.653,4.975c-0.053,0.019-0.209,0.082-0.56,0.234
		L0.57,5.874c-0.002-0.007-0.1,0.025-0.193,0.062c0.03-0.015,0.05-0.025,0.069-0.038c0.019-0.013,0.028-0.019,0.026-0.022
		C0.47,5.867,0.416,5.882,0.363,5.902C0.393,5.887,0.412,5.875,0.43,5.86c0.02-0.013,0.027-0.022,0.024-0.028
		C0.447,5.816,0.402,5.824,0.338,5.846c0.021-0.011,0.05-0.026,0.07-0.038c0.019-0.012,0.027-0.02,0.025-0.023
		C0.432,5.779,0.387,5.789,0.324,5.813c0.091-0.044,0.18-0.092,0.178-0.099L2.025,5.05c0.35-0.152,0.502-0.224,0.553-0.25
		c0.131-0.036,0.328-0.117,0.874-0.355L3.454,4.45c-0.618,0.27-0.75,0.332-0.855,0.399C2.494,4.889,2.432,4.915,2.04,5.084
		L1.093,5.498c-0.186,0.08-0.235,0.106-0.231,0.113c0.002,0.006,0.055-0.015,0.24-0.095L3.387,4.52
		C3.85,4.318,4.054,4.224,4.113,4.193c0.033-0.01,0.127-0.046,0.199-0.077C4.395,4.08,4.477,4.041,4.505,4.023
		C4.569,4.001,4.777,3.915,5.24,3.712L7.484,2.735z"/>
	<path d="M7.366,2.633C7.49,2.58,7.52,2.563,7.518,2.56c0-0.002-0.043,0.013-0.135,0.054l-0.32,0.139L7.062,2.75l0.914-0.406
		c0.002,0.006,0.13-0.038,0.202-0.068c-0.02,0.012-0.049,0.028-0.066,0.042c-0.02,0.013-0.027,0.024-0.023,0.03
		C8.093,2.36,8.137,2.35,8.201,2.327c-0.082,0.038-0.21,0.11-0.207,0.117l-0.93,0.397L7.062,2.836l0.34-0.148
		c0.113-0.049,0.154-0.069,0.152-0.072s-0.053,0.02-0.166,0.069l-2.09,0.91c-0.525,0.229-0.75,0.33-0.851,0.382
		C4.384,3.999,4.322,4.023,4.239,4.059c-0.093,0.04-0.185,0.084-0.244,0.115C3.91,4.205,3.723,4.282,3.054,4.573l-1.997,0.87
		C0.912,5.505,0.892,5.515,0.893,5.517c0.002,0.004,0.054-0.019,0.146-0.06l0.288-0.125L1.33,5.339l-0.884,0.39
		C0.443,5.723,0.357,5.75,0.305,5.77c0.02-0.013,0.049-0.03,0.067-0.043c0.019-0.015,0.026-0.022,0.024-0.03
		c-0.006-0.01-0.061,0.002-0.115,0.019C0.342,5.686,0.43,5.634,0.427,5.628l0.879-0.373l0.002,0.004l-0.34,0.148
		c-0.093,0.04-0.123,0.055-0.122,0.059C0.848,5.471,0.91,5.445,1.105,5.36l2.276-0.991c0.452-0.197,0.594-0.268,0.587-0.282
		C3.962,4.069,3.753,4.152,3.361,4.322l-2.409,1.05c-0.093,0.04-0.113,0.05-0.112,0.053c0.001,0.001,0.012-0.001,0.125-0.051
		l0.371-0.161l0.002,0.006L0.413,5.625C0.41,5.619,0.314,5.65,0.262,5.669c0.02-0.011,0.039-0.022,0.059-0.034
		c0.019-0.013,0.036-0.028,0.033-0.034C0.348,5.587,0.303,5.597,0.239,5.62C0.321,5.583,0.42,5.529,0.418,5.522l0.856-0.366
		l0.003,0.005l-0.34,0.147C0.845,5.349,0.824,5.36,0.825,5.362s0.021-0.007,0.114-0.047l2.049-0.893
		C3.73,4.1,3.872,4.032,3.951,3.989c0.063-0.023,0.146-0.058,0.229-0.093c0.093-0.041,0.185-0.083,0.213-0.101
		C4.469,3.77,4.646,3.701,5.232,3.445l2.132-0.928C7.509,2.454,7.528,2.443,7.527,2.44C7.526,2.438,7.494,2.45,7.361,2.507
		L7.053,2.642L7.051,2.638l0.883-0.393c0.002,0.007,0.1-0.022,0.203-0.064C8.107,2.197,8.078,2.214,8.07,2.223
		c-0.02,0.014-0.027,0.023-0.024,0.029c0.005,0.011,0.05,0.002,0.113-0.021c-0.082,0.038-0.189,0.1-0.187,0.106L7.063,2.724
		L7.062,2.72l0.329-0.145c0.145-0.062,0.153-0.068,0.153-0.07c-0.002-0.002-0.013,0-0.157,0.062L4.998,3.609
		C4.484,3.833,4.406,3.88,4.412,3.893s0.112-0.022,0.606-0.237L7.366,2.633z"/>
	<path d="M7.271,2.443c0.246-0.108,0.316-0.146,0.311-0.159C7.577,2.272,7.504,2.3,7.051,2.498L6.309,2.821
		C6.072,2.924,5.866,3.013,5.744,3.072c-0.12,0.032-0.215,0.066-0.854,0.345L4.889,3.413c0.68-0.296,0.729-0.323,0.855-0.399
		c0.094-0.035,0.291-0.118,0.549-0.23l0.916-0.399c0.504-0.22,0.565-0.247,0.646-0.287c0.021-0.005,0.119-0.035,0.183-0.06
		C8.018,2.048,7.998,2.06,7.99,2.068C7.98,2.075,7.973,2.083,7.974,2.086c0.004,0.009,0.036,0,0.06-0.004
		c0.022-0.005,0.056-0.013,0.06-0.004c0.003,0.008-0.035,0.032-0.054,0.048C8.021,2.142,8.004,2.158,8.008,2.166
		C8.01,2.171,8.043,2.163,8.117,2.136C8.026,2.178,7.928,2.234,7.91,2.25L6.98,2.647L6.979,2.642l0.329-0.144
		c0.124-0.054,0.165-0.073,0.163-0.076S7.428,2.437,7.314,2.486L5.338,3.347c-0.67,0.292-0.914,0.405-1.015,0.455
		c-0.043,0.013-0.138,0.05-0.21,0.082C4.052,3.911,3.971,3.95,3.911,3.981C3.816,4.016,3.557,4.123,3.083,4.33L0.951,5.257
		C0.869,5.293,0.838,5.307,0.84,5.309C0.841,5.313,0.873,5.3,0.955,5.265l0.34-0.147l0.002,0.005L0.414,5.514
		C0.4,5.51,0.324,5.535,0.22,5.575c0.03-0.016,0.05-0.028,0.068-0.041C0.307,5.52,0.314,5.509,0.312,5.505
		C0.308,5.496,0.273,5.501,0.24,5.509S0.194,5.516,0.192,5.512C0.189,5.504,0.208,5.491,0.227,5.477S0.283,5.439,0.28,5.433
		C0.278,5.427,0.225,5.445,0.171,5.461C0.252,5.424,0.342,5.375,0.35,5.366c0.053-0.02,0.197-0.081,0.496-0.211l0.988-0.431
		c0.268-0.116,0.442-0.193,0.555-0.246C2.52,4.442,2.654,4.387,3.242,4.131l0.002,0.005C2.678,4.382,2.525,4.455,2.409,4.527
		C2.314,4.563,2.18,4.619,1.84,4.767L1.213,5.041C0.852,5.198,0.699,5.269,0.705,5.282C0.709,5.292,0.826,5.25,1.237,5.071
		l2.049-0.893c0.453-0.197,0.492-0.221,0.489-0.228C3.773,3.946,3.68,3.984,3.617,4.01C3.535,4.046,3.505,4.061,3.454,4.084
		C3.393,4.113,3.311,4.15,3.229,4.186C3.063,4.257,2.936,4.3,2.943,4.291C2.996,4.27,3.048,4.249,3.109,4.221
		c0.062-0.026,0.123-0.057,0.223-0.107c0.05-0.026,0.172-0.084,0.274-0.129C3.72,3.936,3.824,3.894,3.899,3.871L4.089,3.77
		l0.182-0.062C4.35,3.666,4.451,3.618,4.595,3.554C4.719,3.5,4.803,3.467,4.887,3.437c0.127-0.046,0.19-0.069,0.263-0.101
		c0.062-0.027,0.123-0.055,0.173-0.08c0.024-0.001-0.074,0.053-0.26,0.133c-0.104,0.045-0.197,0.083-0.27,0.112
		C4.729,3.526,4.678,3.548,4.596,3.584c-0.093,0.04-0.152,0.072-0.15,0.076C4.449,3.671,4.584,3.613,5.16,3.362L7.271,2.443z"/>
	<path d="M6.791,2.465c0.443-0.192,0.565-0.248,0.563-0.252C7.354,2.21,7.344,2.214,7.25,2.255L6.973,2.376L6.971,2.371l0.872-0.388
		c0.003,0.008,0.101-0.021,0.185-0.054c-0.02,0.012-0.049,0.028-0.066,0.043C7.942,1.986,7.934,1.996,7.936,2
		C7.939,2.008,7.986,2.003,8.05,1.98C7.979,2.013,7.861,2.081,7.863,2.085L6.933,2.482L6.931,2.477l0.278-0.121
		c0.072-0.032,0.145-0.063,0.143-0.067C7.35,2.286,7.329,2.294,7.174,2.361L5.249,3.2c-0.505,0.22-0.812,0.359-0.973,0.438
		c-0.032,0.01-0.063,0.022-0.095,0.035C4.149,3.685,4.119,3.698,4.088,3.711C4.016,3.743,3.944,3.776,3.875,3.814
		c-0.17,0.059-0.541,0.22-1.2,0.507L0.945,5.075c-0.145,0.062-0.154,0.068-0.152,0.07c0,0.003,0.021-0.005,0.166-0.068l0.288-0.125
		l0.002,0.005L0.305,5.375c0.018-0.017-0.06,0.004-0.153,0.041c0.02-0.01,0.05-0.026,0.069-0.039
		c0.018-0.012,0.026-0.022,0.024-0.026C0.241,5.343,0.217,5.344,0.193,5.346C0.17,5.347,0.125,5.357,0.119,5.342
		C0.107,5.316,0.389,5.147,1.16,4.811l1.926-0.839c0.587-0.256,0.799-0.335,0.972-0.386c0.128-0.074,0.336-0.184,0.831-0.399
		l2.295-1c0.094-0.04,0.145-0.063,0.143-0.066c0-0.002-0.021,0.005-0.083,0.032l-0.299,0.13L6.942,2.279L7.794,1.9
		c0.003,0.006,0.11-0.028,0.194-0.062c-0.021,0.01-0.04,0.022-0.049,0.03S7.932,1.878,7.934,1.881
		c0.002,0.005,0.016,0.008,0.068-0.011c-0.123,0.056-0.273,0.132-0.27,0.14L4.809,3.284C4.427,3.45,4.367,3.483,4.374,3.498
		c0.006,0.014,0.08-0.014,0.44-0.171L6.791,2.465z M3.486,3.905c0.288-0.125,0.368-0.166,0.362-0.18S3.758,3.742,3.346,3.92
		L1.061,4.917C0.741,5.055,0.663,5.102,0.668,5.112c0.004,0.012,0.141-0.041,0.398-0.153L3.486,3.905z"/>
</g>
</svg>
